<svg id="_Group_" data-name="&lt;Group&gt;" xmlns="http://www.w3.org/2000/svg" width="800" height="800" viewBox="0 0 800 800">
  <defs>
    <style>
      .cls-1 {
        fill: #2d2d2d;
        fill-rule: evenodd;
      }
    </style>
  </defs>
  <path id="_Compound_Path_" data-name="&lt;Compound Path&gt;" class="cls-1" d="M723.416,414.076c-15.42-48.86-30.9-97.981-49.339-145.8a17.913,17.913,0,0,0-2.459-4.334c-22.348-46.26-65.94-33.771-109.049-20.836q-73.69,22.114-147.013,45.447c-49.408,15.632-98.794,31.389-147.847,48.11-35.723,12.176-90.124,22.572-108.131,58.988-12.224,24.72.873,53.26,7.043,77.954,9.523,38.132,20.869,75.843,33.1,113.189,9.113,27.83,16.833,66.606,36.266,89.742,19,22.623,48.04,22.387,74.677,16.327,78.112-17.766,154.974-43.792,231.329-67.8q60.4-19,120.633-38.559c25.255-8.224,62.926-13.456,79.019-37.16C764.927,515.038,734.5,449.2,723.416,414.076Zm-520.7,62.775c154.294-43.04,306.411-97.212,457.781-149.4q7.715,21.589,14.95,43.415-135.545,47.505-272.1,91.723c-62.341,20.193-125.721,38.568-187.361,61.026Q209.216,500.291,202.716,476.851Zm-9.548-71.933c6.747-8.3,19.563-12.286,28.911-16.11,13.917-5.692,28.107-10.759,42.308-15.694,37.711-13.107,75.73-25.346,113.742-37.544q72.573-23.292,145.394-45.814c19.513-6.028,39.031-12.059,58.611-17.874,22.62-6.716,46.52-17.584,59.518,4.669,0.072,0.21.086,0.4,0.169,0.616q6.649,17.237,13,34.7c-151.509,51.754-304.678,98.752-456.069,150.742q-2.708-9.746-5.409-19.508C189.81,430.345,183.688,416.579,193.168,404.918Zm515.107,130.54c-9.726,8.174-29.4,10.551-41.534,14.534q-28.179,9.252-56.435,18.263C544.9,589.221,479.39,609.9,413.537,629.439c-30.112,8.935-60.26,17.837-90.644,25.808-14.742,3.867-33.212,11.356-48.563,7.378-17.048-4.42-20.592-22.675-25.778-37.108-10.523-29.286-19.85-58.785-28.63-88.441,153.816-49.021,308.835-95.788,460.79-150.222,10.635,32.8,20.477,65.85,29.3,98.873C714.241,501.56,722.232,523.73,708.275,535.458Z"/>
  <path id="_Path_" data-name="&lt;Path&gt;" class="cls-1" d="M679.084,478.531a45.809,45.809,0,0,0,.274,12.4c0.914,4.893,4,10.275,2.69,15.406-2.2,8.611-16.37,14.3-23.069,18.916-5.1,3.511-2.155,12.724,4.458,10.576,12.31-4,28.709-7.609,35.272-20.082,7.413-14.085-1.1-28.5-8.384-40.257C687.029,470.164,679.561,472.694,679.084,478.531Z"/>
  <path id="_Path_2" data-name="&lt;Path&gt;" class="cls-1" d="M208.986,433.236c1.287-2.1,1.563-4.406,2.905-6.476a30.013,30.013,0,0,1,5.317-5.892c4.392-3.969,10.193-5.83,13.007-11.37a6.827,6.827,0,0,0-5.819-10.14c-7.909-.473-16.532,6.391-21.071,12.415-4.212,5.594-7.742,14.825-4.033,21.463C201.389,436.992,206.833,436.759,208.986,433.236Z"/>
  <path id="_Path_3" data-name="&lt;Path&gt;" class="cls-1" d="M241.187,403.849a9.972,9.972,0,0,0,7.3.94,7.047,7.047,0,1,0-3.747-13.587,8.331,8.331,0,0,0-4.788,3.022C237.764,397.04,237.229,401.978,241.187,403.849Z"/>
  <path id="_Compound_Path_2" data-name="&lt;Compound Path&gt;" class="cls-1" d="M356.711,185.717a410.145,410.145,0,0,0-60.467,6.011c-7.871,1.385-16.644,2.645-25.378,4.378,0.931-15.216-2.858-32.661-9.694-42.958-10.608-15.977-31.012-17.829-47.313-9.8-23.557,11.6-43.989,35.091-60.918,54.617-15.181,17.511-37.913,41.3-43.408,64.425-5.2,21.861,15.082,39.174,32.622,47.607,26.111,12.554,52.85,23.944,79.247,35.883,17.636,7.976,38.14,19.235,53.909,1.652,14.117-15.739,8.527-39.464,4.317-59.2,6.862,0.094,13.8.044,20.9,0.218q33.7,0.825,67.3,3.966c14.272,1.33,34.583,7.833,44.841-5.946,9.555-12.838,9.466-39.026,9.832-54.472C423.4,193.97,388.155,184.9,356.711,185.717Zm40.942,38.115c2.12,5.87,0,14.172-.691,20.19-0.5,4.326.045,21.547-2.871,24.232-4.838,4.448-15.121.9-21.538,0.284q-22.375-2.157-44.834-3.308c-28.977-1.473-59.89-5.145-87.376,4.89-6.084,2.222-4.841,11.778.908,13.494a99.932,99.932,0,0,0,13.263,2.924c2.758,12.151,11.605,43.46-.66,46.539-4.466,1.122-14.974-5.81-18.872-7.574l-20.85-9.43-47.657-21.554c-17.077-7.725-37.632-13.843-27.838-36.453,5.707-13.177,17.228-25.772,26.287-36.906a335.621,335.621,0,0,1,38.18-39.542c10.5-9.272,34.85-32.188,41.32-6.353,2.206,8.806,1.671,18.38,3.137,27.326a66.969,66.969,0,0,0-9.229,4.447c-6.5,3.828-5.657,15.221,3.049,15.4,14.739,0.3,29.411-4.985,44.057-6.9q21.158-2.76,42.437-4.281c14.393-1.032,29.542-2.4,43.994-1.264C382,210.786,393.6,212.6,397.653,223.832Z"/>
  <path id="_Path_4" data-name="&lt;Path&gt;" class="cls-1" d="M229.071,93.119c-22.2,6.315-46.513,22.991-60.026,41.718-2.834,3.929,2.689,7.43,6.025,5.005,9.344-6.787,17.717-14.737,27.145-21.424,9.459-6.71,19.794-11.73,29.442-18.082C235.005,98.129,233.613,91.827,229.071,93.119Z"/>
  <path id="_Path_5" data-name="&lt;Path&gt;" class="cls-1" d="M156.637,152.494c-3.508.457-7.809,1.078-9.393,4.715a4.014,4.014,0,0,0,1.242,4.686c3.015,1.991,6.252.817,9.543,0.362C164.307,161.39,162.944,151.674,156.637,152.494Z"/>
</svg>
