<svg id="_Group_" data-name="&lt;Group&gt;" xmlns="http://www.w3.org/2000/svg" width="800" height="800" viewBox="0 0 800 800">
  <defs>
    <style>
      .cls-1 {
        fill: #2d2d2d;
        fill-rule: evenodd;
      }
    </style>
  </defs>
  <path id="_Compound_Path_" data-name="&lt;Compound Path&gt;" class="cls-1" d="M275.608,221.5c-30.483-15.4-55.541,12.888-63.655,39.793-11.049,36.634-5.9,80.96,10.174,115.294,10.905,23.305,37.339,56.307,67.191,44.256a11.932,11.932,0,0,0,2.787-.988c31.166-15.934,35.447-63.752,33.174-94.085C322.661,290.809,310.274,239.019,275.608,221.5Zm-50.622,40.2a17.768,17.768,0,0,1,4-6.708,3.538,3.538,0,0,1,5.96,2.47,16.86,16.86,0,0,1-1.637,7.337c-1.07,2.623-1.764,5.669-4.9,6.4a3.873,3.873,0,0,1-4.22-1.716C222.5,266.9,223.977,264.226,224.986,261.7Zm37.057,139.624c-36.571-21.984-45.6-71.018-41.972-110.469,0.476-5.18,8.038-5.344,8.187,0,1.127,40.8,11.427,73.286,38.61,104.213C269.772,398.372,266.063,403.741,262.043,401.324Zm44.864-47.68c-1.31,3.848-7.277,3.315-7.243-.98,0.194-24.709.06-45.751-8.413-69.335-1.56-4.342,5.417-7.213,7.414-3.127C309.286,301.933,314.875,330.255,306.907,353.644Z"/>
  <path id="_Path_" data-name="&lt;Path&gt;" class="cls-1" d="M385.2,100.9a14.717,14.717,0,0,0-3.951-.33,7.715,7.715,0,0,0-7.326,9.616c1.9,9,13.443,14.466,21.81,14.115,6.792-.284,11.3-7.461,7.794-13.578C399.934,104.458,392.492,99.828,385.2,100.9Z"/>
  <path id="_Path_2" data-name="&lt;Path&gt;" class="cls-1" d="M627.3,262.51c3.824,55.717-4.033,111-9.034,166.487-0.38,4.216,6.43,5.086,7.365,1a553.032,553.032,0,0,0,13.049-84.912c1.84-26.419,3.353-57.967-3.993-83.573C633.559,257.563,627,258.15,627.3,262.51Z"/>
  <path id="_Compound_Path_2" data-name="&lt;Compound Path&gt;" class="cls-1" d="M513.257,279.635c0.926-7,.383-15.237-3.134-21.513-5.717-10.2-20.357-16-30.084-21.217-7.073-3.728-16.984-11.354-25.516-9.6-10.321,2.126-10.816,15.506-10.988,23.954-0.283,14.014,2.373,19.921,13.848,27.072,7.723,4.811,16.391,8.47,24.56,12.522,6.3,3.124,13.6,7.694,20.859,5.015C509.609,293.36,512.375,286.3,513.257,279.635Zm-15.439,5.114c-2.266.7-9.4-3.433-11.5-4.259-8.823-3.46-19.045-6.756-26.2-13.319-3.883-3.563-4.764-6.653-5.217-11.844-0.221-2.543-.8-12.86,1.268-14.827,3.749-3.56,14.408,4.314,18.09,6.3,10.9,5.98,26.467,11.449,27.3,25.466C501.759,275.711,502.106,283.43,497.818,284.749Z"/>
  <path id="_Compound_Path_3" data-name="&lt;Compound Path&gt;" class="cls-1" d="M658.021,222.1c-13.964-24.2-37.441-41.411-61.349-54.894-28-15.787-57.126-29.761-85.826-44.211-30.093-15.151-60.112-30.453-90.306-45.4-28.99-14.349-58.211-30.2-89.256-39.7a163.113,163.113,0,0,0-28.154-5.8c-8.1-4.065-17.534-6.2-25.945-7.376-18.243-2.554-52.234-3.2-62.566,16.645a173.26,173.26,0,0,0-19.1,7.669c-48.185,23.009-54.088,77.647-60.392,125.279-6.377,48.2-10.947,98.523-3.577,146.88,2.72,17.857,7.811,35.272,17.069,50.681-17.112,57.089-14.008,123.746-5.168,181.907,8.662,57,25.66,120.814,59.887,168.26,29.042,40.258,83.64,71.208,132.013,44.593C354.661,756.018,369.7,737,372.8,714.906c3.9-27.852-11.077-56.742-24.2-80.311-18.507-33.242-38.537-65.7-57.861-98.472-14.214-24.105-30-48.053-40.658-74.028a90.282,90.282,0,0,0,31.539,7.96C333.3,498.126,386.1,524.062,439.027,549.682c21.024,10.177,43.89,22.756,68.036,20.632,26.493-2.33,54.336-14.887,76.829-28.607,22.965-14.009,43.2-32.572,57.38-55.562,15.6-25.3,18.177-54.31,21.946-83.132,4.255-32.554,7.5-65.256,8.642-98.076C672.842,276.605,672.6,247.365,658.021,222.1Zm-10.393,127.49c-4.7,54.52-5.412,114.791-48.388,154.3-21.461,19.725-48.955,33.757-76.917,41.588a67.7,67.7,0,0,1-23.445,2.395c12.506-3.222,24.054-10.241,33.5-22.424,17.135-22.088,18-56.123,21.789-82.735,5.569-39.09,10.292-78.556,11.5-118.05,1.223-40.012-5.706-74.692-38.382-101.544-19.722-16.207-43.05-27.2-65.627-38.773C434.844,170.6,407.9,157.09,381,143.505c-24.528-12.387-42.064-21.476-70.05-18.287-27.6,3.144-57.939,8.528-84.758-1.4-13.155-4.869-20.325-14.341-30.874-22.488-5.854-4.524-12.551-7.848-20.067-5.676-0.156.044-.292,0.127-0.445,0.176a57.725,57.725,0,0,1,9-12.909c6.725-7.127,15.274-12.754,24.829-17.181a121.109,121.109,0,0,0-2.667,20.408c-0.255,7.226,3.944,13.069,9.514,17.256,17.754,13.341,49.278,14.6,65.566,12.18,7.448-1.1,15.111-2.987,21.623-6.9,5.8-3.482,10.426-8.73,11.575-15.564,1.878-11.17,2.242-23.006,4.75-34.011,0.184-.812.327-1.594,0.45-2.367,20.854,5.512,40.7,15.338,59.954,24.6,26.728,12.858,53.219,26.2,79.692,39.569,47.739,24.112,99.586,45.347,143.974,75.372,23.4,15.827,41.659,36.984,46.15,65.58C653.682,290.31,650.085,321.077,647.628,349.588ZM265.436,73.437c0.261-6.661,10.029-5.4,9.031,1.223-1.417,9.386-1.872,19.057-4.083,28.3-0.985,4.118-7.465,3.191-7.341-.994C263.328,92.442,265.06,82.977,265.436,73.437Zm-22.16-2.76c0.249-6.659,10.045-5.4,9.031,1.223-1.381,9.029-1.8,18.35-3.96,27.241-1,4.116-7.449,3.193-7.34-.994C241.244,88.974,242.935,79.86,243.276,70.678Zm-23.619,4.714c0.592-4.716.349-9.576,2.648-13.808,1.644-3.029,6.784-2.474,7.526.983,1.019,4.748-.536,9.292-1.306,14.023-0.867,5.332-1.69,10.553-3.039,15.79-1.053,4.089-7.508,3.235-7.365-1C218.305,85.984,218.987,80.747,219.657,75.392Zm74.022,509c14.293,24.24,29.583,48.159,42.334,73.26,11.633,22.905,23.693,51.646,6.254,74.66C306.313,779.762,243.3,743.1,218.033,704.692,189.509,661.335,174.7,607,165.946,556.345a504.672,504.672,0,0,1-7.149-90.1c0.206-24.826,3.428-49.062,6.125-73.514a172.319,172.319,0,0,0,14.144,12.87c-1.65,20.09,1.263,40.616,3.833,60.486q4.461,34.536,11.982,68.58c9.859,44.347,22.812,89.552,42.131,130.8,9.723,20.761,48.188,74.8,72.433,39.58,9.9-14.39,3.211-30.657-4.658-44.185-12.033-20.689-24.526-41.1-36.376-61.9-13.253-23.266-26-46.83-37.633-70.955-9-18.669-15.838-39.615-25.4-58.454-2.127-15.825-2.969-32.092-4.942-48.077,1.756,1.212,3.513,2.423,5.268,3.617a10.794,10.794,0,0,0,3.039,1.418,138.455,138.455,0,0,0,11.214,13.36c0.05,0.313.046,0.608,0.122,0.929C232.168,492.711,266.974,539.106,293.679,584.4ZM225.2,565.521q5.74,11.018,11.683,21.931c11.951,21.841,24.524,43.337,37.23,64.747,5.541,9.334,14.358,20,17.224,30.51,5.664,20.771-14.842,3.3-20.039-2.87-14.67-17.416-22.141-40.768-29.626-61.876Q232.482,592.051,225.2,565.521Zm230.584-31.48c-3.215-1.543-6.459-3.133-9.754-4.733-41.44-20.119-82.8-40.433-123.595-61.825,6.152-1.073,12.213-2.348,18.093-3.719,18.487-4.312,35.4-6.182,50.071-19.211,14.312-12.7,24.059-30.3,30.766-48,14.435-38.091,13.964-80.928,5.1-120.262a11.758,11.758,0,0,0-.333-2.867c-7.973-31.92-20.337-63.819-42.738-88.515-22.852-25.194-53.335-34.067-86.634-30.391-29.595,3.267-63.194,7.637-86.413,27.829-19.478,16.94-30.623,42.213-36.188,66.954-9.726,43.235-5.909,89.964,10.1,131.489-14.348-14.244-25.016-30.917-29.818-53.268a240.085,240.085,0,0,1-4.881-40.284c-1.075-32.922,3.091-66.547,7.432-98.24,1.718-12.546,3.591-25.076,6.224-37.467,2.135-10.045,3.793-23.347,8.733-32.453,3.562-6.566,12.889-9.033,19.221-5.061,3.155,1.98,5.724,6,8.572,8.456A73.377,73.377,0,0,0,222.921,135.7c20.658,7.411,43.1,6.34,64.61,4.519,11.252-.953,22.433-3.058,33.713-3.659,15.119-.8,26.694,4.046,39.924,10.71,43.972,22.152,89.067,42.989,131.849,67.39,21.116,12.044,42.377,27.571,52.833,50.285,6.935,15.065,7.746,31.627,7.716,47.918-0.065,32.976-3.591,66.027-7.591,98.72-3.455,28.238-6.769,57.094-13.361,84.818-3.96,16.655-14.612,30.529-30.439,37.551C486.57,540.874,470.885,539.066,455.781,534.041ZM362.072,319.163c-4.1-49.929-25.669-119.083-76.626-140.39-0.24-.1-0.477-0.176-0.715-0.271,27.138-4.443,54.126-5.781,76.42,14.723,24.276,22.327,36.266,54.728,44.069,85.964a11.853,11.853,0,0,0,.7,1.957c6.3,30.3,7.688,61.91.068,92.119-3.635,14.412-9.25,28.319-17.588,40.679-10.736,15.916-22.482,21.969-40.7,25.832-8.459,1.793-17.371,3.958-26.443,5.755C356.732,418.13,365.438,360.143,362.072,319.163ZM299.2,444.105c-32.621,10.309-64.349-17.371-80.72-42.926-2.858-4.462-5.47-9.1-7.887-13.848-15.874-32.882-22-70.218-19.3-106.561,0.16-2.162.387-4.333,0.619-6.5,0.3-2.385.614-4.763,1-7.121,6.106-37.554,31.537-89.384,78.127-79.949s68.505,71.271,75.932,111.731C355.506,345.457,350.449,422.259,299.2,444.105ZM288.48,74.332c0.654-5.738,9.73-5.761,9.048,0-1.1,9.269-1.884,19.383-5.676,28-1.528,3.468-6.909,1.567-6.873-1.861C285.072,91.778,287.5,82.966,288.48,74.332Z"/>
  <path id="_Path_3" data-name="&lt;Path&gt;" class="cls-1" d="M614.328,446.131c-4.753.775-5.816,8.931-5.681,12.823,0.1,2.935,4.307,5.439,6.463,2.677a26.424,26.424,0,0,0,4.1-7.829C620.448,450.151,618.994,445.371,614.328,446.131Z"/>
  <path id="_Path_4" data-name="&lt;Path&gt;" class="cls-1" d="M612.739,217.226c-9.94,1.487-19.539,6.031-28.759,9.906-7.934,3.333-16.863,6.526-22.949,12.748-2.931,2.993-.9,8.745,3.546,8.562,9.306-.383,18.289-4.93,27.077-7.837,9.059-2.995,18.431-5.078,27.11-9.09C627.5,227.476,620.712,216.032,612.739,217.226Z"/>
  <path id="_Path_5" data-name="&lt;Path&gt;" class="cls-1" d="M355.16,78.888c-4.076-2.153-9.836-1.132-13.76.954-4.329,2.3-5.045,8.763-1.558,12.09,3.967,3.786,9.179,7.053,14.645,8.07,3.78,0.7,7.691.4,10.4-2.652,3.375-3.8,3.169-9.054.151-12.96A15.659,15.659,0,0,0,355.16,78.888Z"/>
</svg>
