<svg id="_Group_" data-name="&lt;Group&gt;" xmlns="http://www.w3.org/2000/svg" width="800" height="800" viewBox="0 0 800 800">
  <defs>
    <style>
      .cls-1 {
        fill: #2d2d2d;
        fill-rule: evenodd;
      }
    </style>
  </defs>
  <path id="_Compound_Path_" data-name="&lt;Compound Path&gt;" class="cls-1" d="M647.745,217.218c-52.139,5.321-97.43,32.985-131.451,71.891a207.757,207.757,0,0,0-18.673-20.152c-55.375-52.189-144.479-38.85-197.564,10.186-27.671,25.562-44.294,62.723-42.288,100.44-8.272.622-16.54,1.414-24.8,2.445-48.634,6.078-102.313,17.422-140.265,50.624C60.115,461.166,39.651,507.533,65.87,546.879c11.1,16.65,28.243,30.4,48.141,34.521,24.773,5.137,52.535-1.119,76.607-7.175,116.348-29.272,214.382-103.066,315.8-163.6,53.075,4.373,108.391,6.485,159.027-12.816,41.43-15.79,80.324-47.193,80.573-95.194C746.292,249.433,699.009,211.985,647.745,217.218ZM408.209,383.8c-25.724-2.427-51.555-4.47-77.4-5.372A460.316,460.316,0,0,0,393.6,360.671,591.055,591.055,0,0,0,457.058,334c17.105-8.467,34.294-19.161,45.536-34.908,7.825,9.5,14.353,20.225,15.621,30.75,0.689,5.735-.222,5.008-5.027,8.669-4.509,3.436-9.135,6.724-13.834,9.9-8.236,5.555-16.736,10.652-25.406,15.493-14.624,8.161-29.766,14.8-44.757,22.006Q418.685,384.8,408.209,383.8Zm88.544-91.332c-25.494,28.84-63.923,43.154-99.26,56.239a486.065,486.065,0,0,1-57.526,17.549c-9.731,2.285-19.545,4.238-29.423,5.762-2.525.389-33.471,5.618-34.409,3.832a5.2,5.2,0,0,0-1.049-1.375,108.171,108.171,0,0,1,6.648-37.379,347.664,347.664,0,0,0,111.137-16.577c29.656-9.632,63.075-22.395,85.224-45.442,2,1.551,3.935,3.159,5.794,4.831C487.875,283.491,492.364,287.755,496.753,292.463Zm-176.688-7.641c29.624-23.242,74.886-38.527,112.523-30.883a111.074,111.074,0,0,1,39.253,16.628C447.083,291.782,417.339,303.29,386,312.4a358.961,358.961,0,0,1-100.018,14.714A119.809,119.809,0,0,1,320.065,284.822ZM129.583,565.559c-24.77-.4-46.281-16.967-55.382-39.849-9.826-24.7,2.923-50.467,19.257-69.169,17.153-19.637,40.357-32.2,64.786-40.544,92.882-31.713,192.233-21.017,288.791-11.063-6.5,2.417-13.028,4.782-19.712,6.892-1.376.433-2.742,0.894-4.11,1.351q-5.811,1.411-11.618,2.831c-20.225,4.955-40.558,9.344-61.049,13.037-18.3,3.3-37.87,4.73-54.957,12.6-10.091,4.65-27.146,15.538-19.641,28.872,7.451,13.24,30.426,3.171,41.254.209,19.27-5.271,38-12.309,56.558-19.668q27.976-11.094,55.983-22.118c9.457-3.716,20.75-6.606,31.08-10.8-79.4,49.585-157.973,103-247.589,131.553C186.439,558.233,157.912,566.019,129.583,565.559Zm187-112.736c-1.332.384-2.656,0.8-3.993,1.165-0.907.248-1.821,0.477-2.73,0.717,1.723-.555,3.461-1.061,5.227-1.524C315.581,453.05,316.084,452.948,316.58,452.823Zm263.07-56.732c-39.5,1.37-79.143-2.465-118.608-6.734,23.979-9.756,46.608-24.372,66.059-39.772,15.736-12.46,8.714-32.519-3.2-50.207,32.026-36.267,81.541-63.066,130.312-65.355,54.131-2.542,94.173,55.115,64.624,103.713C691.531,382.648,627.777,394.423,579.65,396.091Z"/>
  <path id="_Path_" data-name="&lt;Path&gt;" class="cls-1" d="M701.434,311.7c-20.15,42.532-60.671,55.017-104.195,61.4-3.471.509-2.693,6.584,0.838,6.183,40.467-4.593,101.871-15.683,109.163-65.137C707.714,310.93,703.125,308.128,701.434,311.7Z"/>
  <path id="_Path_2" data-name="&lt;Path&gt;" class="cls-1" d="M703.67,285.832a39.837,39.837,0,0,0-.658,10.054c0.1,2.82,4.267,4.386,5.665,1.534a10.848,10.848,0,0,0,1.214-2.885,25.926,25.926,0,0,0,.357-3.266,11.873,11.873,0,0,0-1.2-6.139C707.954,282.856,704.215,283.453,703.67,285.832Z"/>
  <path id="_Path_3" data-name="&lt;Path&gt;" class="cls-1" d="M278.107,406.08c-55.458,3.12-119.4,14.669-161.209,54.512-2.278,2.17.76,6.341,3.435,4.453,22.87-16.139,46.431-27.155,73.371-34.987,27.931-8.12,56.878-11.583,85.248-17.736C282.425,411.568,281.7,405.878,278.107,406.08Z"/>
  <path id="_Path_4" data-name="&lt;Path&gt;" class="cls-1" d="M403.177,268.847c15.127,1.243,29.617,4.551,44.5,6.912,2.816,0.448,6.161-3.247,3.226-5.539-13.534-10.559-31.528-8.78-47.73-7.727A3.179,3.179,0,0,0,403.177,268.847Z"/>
  <path id="_Path_5" data-name="&lt;Path&gt;" class="cls-1" d="M385.943,273.091a3.793,3.793,0,0,0,1-7.412c-2.111-.767-5.581-0.908-7.172.969a3.188,3.188,0,0,0-.474,3.671C380.352,272.535,383.709,273.286,385.943,273.091Z"/>
</svg>
