<svg id="_Group_" data-name="&lt;Group&gt;" xmlns="http://www.w3.org/2000/svg" width="800" height="800" viewBox="0 0 800 800">
  <defs>
    <style>
      .cls-1 {
        fill: #2d2d2d;
        fill-rule: evenodd;
      }
    </style>
  </defs>
  <path id="_Compound_Path_" data-name="&lt;Compound Path&gt;" class="cls-1" d="M709.046,295.421a28.213,28.213,0,0,0-4.072-9.741,36.168,36.168,0,0,0-6.152-6.591l-0.3-.234c0.8-1.843,1.561-3.7,2.253-5.581,1.791-3.3,2.415-7.389,2.737-11.071,1.1-12.628-4.111-22.329-14.525-29.083-0.413-.268-0.821-0.42-1.232-0.636,6.26-8.536,11.967-17.425,15.961-26.943,24.567-58.568-71.488-70.375-107.789-74.34-61.566-6.725-123.9-16.73-185.781-7.7-27.934,4.072-56.12,12.435-79.567,28.626-31.328,21.633-59.514,49.363-87.366,75.185C189.624,276.986,132.128,326.478,87.588,384.7c-21.17,27.679-30.822,54.125-26.226,89.212,2.04,15.556,6.026,30.677,10.156,45.784,4.758,17.406,7.934,35.971,14.867,52.664,13.167,31.71,43.851,45.795,73.643,58.784a556.544,556.544,0,0,0,104.543,33.6,675.74,675.74,0,0,0,116.092,14.612c32.646,1.3,68.742,2.805,98.385-13.312,22.756-12.372,39.558-33.865,55.792-53.556,14.791-17.945,29.127-36.268,43.356-54.659q48.465-62.646,95.03-126.741c11.254-15.481,22.476-31,33.317-46.779,9.757-14.2,21.66-28.693,28.98-44.164C747.4,315.049,731.944,300.887,709.046,295.421Zm1.947,35.526c-1.4,5.187-7.068,10.956-10.128,15.27-4.025,5.681-7.753,11.506-11.605,17.3-9.407,14.147-19.377,27.927-29.3,41.708q-43.926,60.955-89.7,120.572c-27.011,35.273-53.774,75.4-87.089,105.195-30.135,26.955-71.325,23.923-109.143,22.032A626.949,626.949,0,0,1,258.439,636.65c-37.632-9.066-74.618-21.7-109.209-39.167-14.993-7.572-29.667-15.894-37.4-31.524-7.98-16.129-10.462-35.89-15.2-53.185-9.637-35.18-18.32-69.81,3.929-101.948,20.54-29.663,46.476-55.588,72.222-80.7,53.136-51.825,106.423-106.618,165.6-151.588,50.29-38.216,120.283-35.08,179.939-29.843,29.63,2.6,59.174,6.377,88.727,9.725,15.614,1.766,77,8.266,74.4,32.564-1.778,16.637-21.989,35.964-32.18,48.942-14.3,18.212-28.937,36.157-43.634,54.046q-54.653,66.525-110.98,131.67c-16.069,18.525-33.6,45.506-57.142,54.712-20.014,7.828-44.268-1.553-64.308-5.993q-73.725-16.327-147.633-31.807c-14.7-3.094-29.423-6.07-44.144-9.061-19.979-4.057-46.055-11.439-64.638.8-19.626,12.926-14.092,38.881-10.332,58.375,4.209,21.846,9.408,45.052,18.175,65.609,9.852,23.1,42.767,31.238,64.447,39.334,36.106,13.486,73.78,22.2,111.9,27.582,36.563,5.165,74.694,9.27,111.662,7.788,32.367-1.3,53.981-16.972,76-39.431C522.934,558.58,553.3,519.491,583.5,481c28.4-36.2,56.2-72.876,83.75-109.728,9.794-13.1,28.452-31.617,37.4-50.413C709.73,322.045,712.836,324.126,710.993,330.947Zm-293.2,216.5c2.22,3.006,5.684,4.719,7.809,7.535,6.632,8.787,4.263,12.833,2.759,22.908-1.191,7.97,3.47,17.031,3.943,25.094a72,72,0,0,1-22.815,4.075c-20.208.509-40.707-1.04-60.844-2.63-41.823-3.3-83.423-10.057-123.647-22.154a430.174,430.174,0,0,1-54.4-20.219c-12.722-5.792-20.238-8.04-24.56-21.07-7.559-22.785-16.773-49.383-17.1-73.585-0.11-8.207.193-11.669,8.6-13.271,5.632-1.074,12.425-.026,18.03.758,8.935,1.252,17.767,3.47,26.612,5.238,18.841,3.764,37.633,7.777,56.427,11.759q73.145,15.51,146.208,31.447a215.038,215.038,0,0,0,28.846,4.811C409.82,521.449,409.045,535.605,417.793,547.445ZM675.843,255.6c4.867,3.158-8.486,27.742-2.055,36.826,4.728,6.676,10.527,5.677,7.953,15.047-1.659,6.041-7.866,12.55-11.6,17.351-7.7,9.916-15.324,19.85-22.84,29.908-28.986,38.8-58.2,77.426-88.188,115.449-30.817,39.066-61.745,79.351-97.8,113.807a97.606,97.606,0,0,1-17.046,13.319c-0.164-.717-0.323-1.426-0.506-2.192-2.771-11.658,1.212-21.352.015-32.668-0.817-7.736-4.636-9.965-9.139-15.255-6.045-7.1-12.342-11.436-12.675-21.924-0.184-5.785,1.178-11.388,3-16.838a66.484,66.484,0,0,0,29.99-7.925c22.321-12.156,38.628-34.407,55.027-53.248Q567.973,380.651,623.951,312.3c15.408-18.733,30.761-37.517,45.706-56.622,0.878-1.121,1.783-2.255,2.678-3.384A13.6,13.6,0,0,0,675.843,255.6Z"/>
  <path id="_Path_" data-name="&lt;Path&gt;" class="cls-1" d="M369.821,529.679c-65.984-16.032-132.953-28.749-199.765-40.794-6.372-1.152-9.154,8.522-2.7,9.8,66.686,13.192,133.3,27.173,200.216,39.159C372.848,538.792,375.2,530.983,369.821,529.679Z"/>
  <path id="_Path_2" data-name="&lt;Path&gt;" class="cls-1" d="M375.024,558.3c-62.371-14.634-127.218-26.549-191.3-29.982-4.845-.257-6.1,7.888-1.165,8.612,63.612,9.333,126.924,17.618,190.051,30.142C378.293,568.2,380.768,559.65,375.024,558.3Z"/>
  <path id="_Path_3" data-name="&lt;Path&gt;" class="cls-1" d="M634.014,316.261c-29.464,32.549-55.36,68.974-82.528,103.46-25.964,32.954-52.748,65.441-77.356,99.432-2.637,3.645,3.312,8.252,6.254,4.826,28.731-33.415,55.362-68.733,82.7-103.285,25.948-32.791,53.9-64.829,77.557-99.318C643.347,317.431,637.222,312.716,634.014,316.261Z"/>
  <path id="_Path_4" data-name="&lt;Path&gt;" class="cls-1" d="M605.609,381.817a920.272,920.272,0,0,0-81.6,101.194c-2.7,3.912,3.6,8.868,6.652,5.134,27.206-33.24,53.937-66.942,80.851-100.424C614.8,383.626,609.333,377.786,605.609,381.817Z"/>
  <path id="_Compound_Path_2" data-name="&lt;Compound Path&gt;" class="cls-1" d="M324.241,351.9a7.687,7.687,0,0,0,2.333.283c38.084,8.025,81.05-3.273,114.907-20.62,32.441-16.618,70.913-47.816,72.56-87.64,1.735-41.92-44.535-56.783-79.106-56.482-48.634.423-99.13,24.6-131.55,60.587-15.368,17.065-28.637,40.3-23,64.074C285.487,333.637,304.076,346.135,324.241,351.9Zm-0.5-42.466c2.051-7.9,6.422-15.161,10.674-22.05a173.816,173.816,0,0,1,14.743-20.371c9.522,2.59,19.379,4.332,28.27,5.866q-19.223,21.579-38.508,43.1c-3.888,4.332-8.838,8.809-13.031,13.646C323.1,323.4,321.533,317.955,323.743,309.435ZM437.9,268.24c-10.817-1.04-21.605-2.311-32.318-3.912,17.178-18.484,34.908-37.17,48.313-58.133,2.106,16.195,4.952,30.7-4.734,46.705A118.894,118.894,0,0,1,437.9,268.24Zm-91.081,64.416a8.884,8.884,0,0,0-2.158.327c-0.136,0-.268,0-0.4,0,1.5-1.861,2.951-3.667,4.376-5.253q22.064-24.561,44-49.243c0.736-.825,1.5-1.646,2.244-2.471q15.549,2.82,31.153,4.979c-1.826,1.82-3.654,3.622-5.477,5.372a214.58,214.58,0,0,1-35.2,27.527,208.273,208.273,0,0,1-22.072,12Q355.208,329.673,346.815,332.656Zm40.9-71.356c-9.257-1.761-18.437-3.819-27.5-6.286,2.912-2.876,5.914-5.666,9.026-8.337,19.292-16.55,40.59-25.788,63.093-34.423C416.985,228.057,402.4,244.708,387.719,261.3Zm55.709,52.1c-20.542,12.041-45.494,21.675-70.643,25.212,3.639-2.036,6.922-4,9.484-5.4A229.628,229.628,0,0,0,433.2,295.12c3.879-3.815,7.67-7.772,11.278-11.847q16.356,1.843,32.8,3.061A166.726,166.726,0,0,1,443.428,313.4Zm45.631-41.374c-11.222-.683-22.5-1.4-33.774-2.273,13.649-19.268,21.178-40.867,12.919-64.193a55.849,55.849,0,0,1,22.135,14.138C505.605,235.772,500.867,254.9,489.059,272.022Zm-83.884-66.21a193.061,193.061,0,0,0-61.2,44.26c-5.282-1.761-10.532-3.629-15.714-5.717a198.331,198.331,0,0,1,26.772-18.436A200.965,200.965,0,0,1,405.175,205.812Zm-107.792,78.4c4.384-11.681,12.164-22.165,21.479-31.376a60.725,60.725,0,0,0,15.128,8.976c-12.621,16.166-30.543,44.031-27.055,64.468C295.587,316.376,290.785,301.8,297.383,284.216Z"/>
  <path id="_Path_5" data-name="&lt;Path&gt;" class="cls-1" d="M170.469,418c63.1,8.285,123.556,30.09,185.956,42.157,5.326,1.029,7.546-6.569,2.261-8.2-32.383-9.979-65.572-17.51-98.456-25.628-29.26-7.223-59.34-17.061-89.761-16.478C165.067,409.961,165.425,417.336,170.469,418Z"/>
  <path id="_Path_6" data-name="&lt;Path&gt;" class="cls-1" d="M653.7,191.014c1.588,2.307,1.8,5.107,2.131,7.811a13.566,13.566,0,0,1-.634,2.488c-1.2,3.191,2.6,7.226,5.869,5.866,7.845-3.26,10.23-11.826,6.193-19.2-2.929-5.354-13.572-12.252-19.8-10.312a4.118,4.118,0,0,0-2.425,5.961C646.926,187.248,651.433,187.717,653.7,191.014Z"/>
  <path id="_Path_7" data-name="&lt;Path&gt;" class="cls-1" d="M626.849,179.994a4.2,4.2,0,0,0,1.256.357,5.463,5.463,0,1,0,2.9-10.533,4.27,4.27,0,0,0-1.278-.279c-2.9-.395-5.82.7-6.667,3.787C622.231,176.355,624.092,178.974,626.849,179.994Z"/>
</svg>
