<svg xmlns="http://www.w3.org/2000/svg" width="800" height="800" viewBox="0 0 800 800">
  <defs>
    <style>
      .cls-1 {
        fill: #2d2d2d;
        fill-rule: evenodd;
      }
    </style>
  </defs>
  <path id="_Compound_Path_" data-name="&lt;Compound Path&gt;" class="cls-1" d="M640.633,348.355c3.341-10.671,1.845-23.616,2-34.427,0.2-13.162-.343-26.44-5.255-38.822-10.292-25.952-36.811-47.383-56.743-65.977A670.817,670.817,0,0,0,434.116,105.034c-5.065-2.651-12.624-1.633-15.381,4.033-2.416,4.967-4.949,9.9-7.508,14.838-10.907-4.128-22.175-7.287-33.426-10.311-4.68-1.256-11.2,1.569-12.036,6.834-1.835,11.518-4.028,23.421-5.143,35.217-28.252-12.485-57.586-25.792-83.493-42.317-5.921-3.777-14.952-.211-16.5,6.714-5.265,23.51-5.822,47.714-7.148,71.852-0.075.015-.143,0.008-0.221,0.025-28.691,6.253-38.565,32.252-48.025,56.888a12.727,12.727,0,0,0-.5,1.844c-24.945,10.676-35.4,36.979-43.13,61.515-9.313,29.551-9.435,59.654-1.254,89.5a7.158,7.158,0,0,0,.636,1.55c-2.89,14.64-5.49,29.334-7.655,44.106-3.61,24.6-5.85,48.181,3.623,71.78,17.074,42.539,57.094,67.63,96.59,86.77,47.97,23.246,97.123,44.28,146.64,64,41.6,16.565,89.238,42.272,131.348,13.6,37.168-25.307,57.746-72.948,74.836-112.78,19.34-45.083,34.14-92.815,41.23-141.435C651.822,400.267,650.014,373.313,640.633,348.355Zm-29.6-71.906c6.427,10.473,7.556,21.683,7.528,33.28-1.261-1.6-2.508-3.195-3.851-4.772C584.923,270,543.52,244.085,504.2,221.229q-36.836-21.414-75.675-39.157c-6.043-2.756-12.386-5.844-18.9-8.9,8.525-13.789,15.72-28.53,23.249-42.911,43.426,25.117,84.574,54.187,121.875,87.781C573.785,235.19,597.55,254.478,611.031,276.449ZM391.013,165.043c-4.67-1.837-9.378-3.489-14.089-4.828,2.257-7.965,4-16.186,5.642-24.328,6.3,2.27,12.536,4.693,18.78,7.124C397.671,150.265,394.171,157.59,391.013,165.043ZM269.638,243.181c4.062-19.483,5.833-39.518,7.457-59.28,1.149-13.933,1.17-28.559,2.75-42.726,14.942,8.574,30.666,16.307,46.458,23.574-26.288,15.957-42,52.336-53.528,78.876C271.728,243.472,270.685,243.316,269.638,243.181ZM625.827,407.736c-2.546,42.035-15.527,84.975-29.918,124.325-13.9,38-31.016,79.49-56.7,111.23-11.652,14.4-26.91,27.673-46.063,29.6-22.692,2.284-47.593-11.1-68.1-19.072q-63.175-24.56-124.852-52.739c-40.689-18.6-89.078-37.124-113.714-76.949-13.892-22.457-13.524-45.115-9.816-70.381,3.664-24.98,8.48-49.758,14.092-74.367,12.645-7.133,26.23-8.855,40.037-7.2-9.728,36.91-25.085,80.7-8.623,117.025,13.841,30.534,43.426,46.36,73.245,58.058,71.434,28.021,142.976,58.676,207.329,100.93,6.816,4.475,15.252-6.118,8.831-11.446-51.522-42.771-113.564-73.813-175.178-99.2-27.478-11.319-60.479-19.14-81.291-41.75-29.282-31.813-10.805-80.55-.853-117.927,25.01,8.8,49.408,25.01,68.929,36.887,10.761,6.547,21.913,13.729,34.625,15.5,12.74,1.775,25.027-2.829,37-6.582,21.74-6.817,41.22-10.287,42.444-36.483,1.016-21.808-1-46.476-11.652-65.924-11.764-21.472-34.527-31.616-55.363-42.289-22.583-11.568-47.715-23.256-73.636-30.333,12.93-30.592,32.515-75.4,69.815-65.879,37.917,9.677,75.663,31.42,109.683,50.239C542.935,269.988,631.132,320.059,625.827,407.736Zm-437.939-98c5.88-15.9,12.383-32.258,29.582-38.227,14.66-5.087,31.087-5.724,46.4-4.349,32.406,2.911,62.644,16.655,91.3,31.2,26.815,13.613,51.195,24.325,56.325,57.1,1.665,10.629,5.9,31.063-2.907,38.6-3.6,3.079-12.97,4.065-17.314,5.428-7.165,2.247-14.9,5.706-22.389,6.628-16.05,1.977-30.619-10.375-43.457-18.368-11.553-7.2-23.025-14.568-35.105-20.866-34.755-18.126-79.112-27.349-112.554-5.615a12.009,12.009,0,0,0-1.469.232C178.215,343.9,181.685,326.51,187.888,309.734Zm63.531-91.326a235.448,235.448,0,0,1-3.705,23.548,128.4,128.4,0,0,0-14.507,1.1C237.245,233.01,242.269,223.545,251.419,218.408Z"/>
</svg>
